<svg width="406" height="88" viewBox="0 0 406 88" fill="none" xmlns="http://www.w3.org/2000/svg">
<g filter="url(#filter0_d_5_5876)">
<rect x="3" y="3" width="400" height="72" rx="20" fill="#FFCE67"/>
<rect x="1.5" y="1.5" width="403" height="75" rx="21.5" stroke="black" stroke-width="3"/>
</g>
<path d="M24.584 48V31.2H31.496C32.552 31.2 33.48 31.416 34.28 31.848C35.096 32.264 35.728 32.856 36.176 33.624C36.64 34.392 36.872 35.304 36.872 36.36V36.696C36.872 37.736 36.632 38.648 36.152 39.432C35.688 40.2 35.048 40.8 34.232 41.232C33.432 41.648 32.52 41.856 31.496 41.856H27.752V48H24.584ZM27.752 38.976H31.184C31.936 38.976 32.544 38.768 33.008 38.352C33.472 37.936 33.704 37.368 33.704 36.648V36.408C33.704 35.688 33.472 35.12 33.008 34.704C32.544 34.288 31.936 34.08 31.184 34.08H27.752V38.976ZM39.0684 48V31.2H42.2364V45.12H49.9164V48H39.0684ZM50.9242 48L55.3402 31.2H60.8602L65.2762 48H62.0122L61.1002 44.304H55.1002L54.1882 48H50.9242ZM55.8442 41.376H60.3562L58.3162 33.192H57.8842L55.8442 41.376ZM69.8728 48V42.216L64.1608 31.2H67.6888L71.2408 38.4H71.6728L75.2248 31.2H78.7528L73.0408 42.216V48H69.8728ZM89.2274 48L84.9554 31.2H88.2194L91.7714 45.96H92.1074L95.6594 31.2H98.9234L94.6514 48H89.2274ZM106.588 48.336C105.292 48.336 104.148 48.104 103.156 47.64C102.164 47.176 101.388 46.512 100.828 45.648C100.268 44.784 99.9879 43.744 99.9879 42.528V41.856H103.108V42.528C103.108 43.536 103.42 44.296 104.044 44.808C104.668 45.304 105.516 45.552 106.588 45.552C107.676 45.552 108.484 45.336 109.012 44.904C109.556 44.472 109.828 43.92 109.828 43.248C109.828 42.784 109.692 42.408 109.42 42.12C109.164 41.832 108.78 41.6 108.268 41.424C107.772 41.232 107.164 41.056 106.444 40.896L105.892 40.776C104.74 40.52 103.748 40.2 102.916 39.816C102.1 39.416 101.468 38.896 101.02 38.256C100.588 37.616 100.372 36.784 100.372 35.76C100.372 34.736 100.612 33.864 101.092 33.144C101.588 32.408 102.276 31.848 103.156 31.464C104.052 31.064 105.1 30.864 106.3 30.864C107.5 30.864 108.564 31.072 109.492 31.488C110.436 31.888 111.172 32.496 111.7 33.312C112.244 34.112 112.516 35.12 112.516 36.336V37.056H109.396V36.336C109.396 35.696 109.268 35.184 109.012 34.8C108.772 34.4 108.42 34.112 107.956 33.936C107.492 33.744 106.94 33.648 106.3 33.648C105.34 33.648 104.628 33.832 104.164 34.2C103.716 34.552 103.492 35.04 103.492 35.664C103.492 36.08 103.596 36.432 103.804 36.72C104.028 37.008 104.356 37.248 104.788 37.44C105.22 37.632 105.772 37.8 106.444 37.944L106.996 38.064C108.196 38.32 109.236 38.648 110.116 39.048C111.012 39.448 111.708 39.976 112.204 40.632C112.7 41.288 112.948 42.128 112.948 43.152C112.948 44.176 112.684 45.08 112.156 45.864C111.644 46.632 110.908 47.24 109.948 47.688C109.004 48.12 107.884 48.336 106.588 48.336ZM121.404 48V31.2H128.316C129.372 31.2 130.3 31.416 131.1 31.848C131.916 32.264 132.548 32.856 132.996 33.624C133.46 34.392 133.692 35.304 133.692 36.36V36.696C133.692 37.736 133.452 38.648 132.972 39.432C132.508 40.2 131.868 40.8 131.052 41.232C130.252 41.648 129.34 41.856 128.316 41.856H124.572V48H121.404ZM124.572 38.976H128.004C128.756 38.976 129.364 38.768 129.828 38.352C130.292 37.936 130.524 37.368 130.524 36.648V36.408C130.524 35.688 130.292 35.12 129.828 34.704C129.364 34.288 128.756 34.08 128.004 34.08H124.572V38.976ZM135.889 48V31.2H139.057V45.12H146.737V48H135.889ZM147.745 48L152.161 31.2H157.681L162.097 48H158.833L157.921 44.304H151.921L151.009 48H147.745ZM152.665 41.376H157.177L155.137 33.192H154.705L152.665 41.376ZM166.693 48V42.216L160.981 31.2H164.509L168.061 38.4H168.493L172.045 31.2H175.573L169.861 42.216V48H166.693ZM177.35 48V31.2H188.15V34.08H180.518V38.088H187.478V40.968H180.518V45.12H188.294V48H177.35ZM190.639 48V31.2H197.935C198.991 31.2 199.911 31.384 200.695 31.752C201.479 32.12 202.087 32.64 202.519 33.312C202.951 33.984 203.167 34.776 203.167 35.688V35.976C203.167 36.984 202.927 37.8 202.447 38.424C201.967 39.048 201.375 39.504 200.671 39.792V40.224C201.311 40.256 201.807 40.48 202.159 40.896C202.511 41.296 202.687 41.832 202.687 42.504V48H199.519V42.96C199.519 42.576 199.415 42.264 199.207 42.024C199.015 41.784 198.687 41.664 198.223 41.664H193.807V48H190.639ZM193.807 38.784H197.599C198.351 38.784 198.935 38.584 199.351 38.184C199.783 37.768 199.999 37.224 199.999 36.552V36.312C199.999 35.64 199.791 35.104 199.375 34.704C198.959 34.288 198.367 34.08 197.599 34.08H193.807V38.784Z" fill="black"/>
<circle cx="363" cy="39" r="23" fill="black"/>
<circle cx="363" cy="39" r="20" fill="#FFCE67"/>
<path d="M378.583 37.2083C378.583 43.5596 373.435 48.7083 367.083 48.7083C360.732 48.7083 355.583 43.5596 355.583 37.2083H358.583C358.583 41.9028 362.389 45.7083 367.083 45.7083C371.778 45.7083 375.583 41.9028 375.583 37.2083H378.583Z" fill="black"/>
<path d="M366.375 30.6667V35.6537H363.375V30.6667H366.375Z" fill="black"/>
<path d="M374.708 30.6667V35.6537H371.708V30.6667H374.708Z" fill="black"/>
<circle cx="327" cy="39" r="23" fill="black"/>
<circle cx="327" cy="39" r="20" fill="#FFCE67"/>
<path d="M342.583 37.2083C342.583 43.5596 337.435 48.7083 331.083 48.7083C324.732 48.7083 319.583 43.5596 319.583 37.2083H322.583C322.583 41.9028 326.389 45.7083 331.083 45.7083C335.778 45.7083 339.583 41.9028 339.583 37.2083H342.583Z" fill="black"/>
<path d="M330.375 30.6667V35.6537H327.375V30.6667H330.375Z" fill="black"/>
<path d="M338.708 30.6667V35.6537H335.708V30.6667H338.708Z" fill="black"/>
<defs>
<filter id="filter0_d_5_5876" x="0" y="0" width="406" height="88" filterUnits="userSpaceOnUse" color-interpolation-filters="sRGB">
<feFlood flood-opacity="0" result="BackgroundImageFix"/>
<feColorMatrix in="SourceAlpha" type="matrix" values="0 0 0 0 0 0 0 0 0 0 0 0 0 0 0 0 0 0 127 0" result="hardAlpha"/>
<feOffset dy="10"/>
<feColorMatrix type="matrix" values="0 0 0 0 0 0 0 0 0 0 0 0 0 0 0 0 0 0 1 0"/>
<feBlend mode="normal" in2="BackgroundImageFix" result="effect1_dropShadow_5_5876"/>
<feBlend mode="normal" in="SourceGraphic" in2="effect1_dropShadow_5_5876" result="shape"/>
</filter>
</defs>
</svg>
