<svg width="406" height="88" viewBox="0 0 406 88" fill="none" xmlns="http://www.w3.org/2000/svg">
<g filter="url(#filter0_d_5_5895)">
<rect x="3" y="3" width="400" height="72" rx="20" fill="white"/>
<rect x="1.5" y="1.5" width="403" height="75" rx="21.5" stroke="black" stroke-width="3"/>
</g>
<path d="M30.392 48.336C29.24 48.336 28.192 48.08 27.248 47.568C26.32 47.04 25.576 46.28 25.016 45.288C24.472 44.28 24.2 43.056 24.2 41.616V37.584C24.2 35.424 24.808 33.768 26.024 32.616C27.24 31.448 28.888 30.864 30.968 30.864C33.032 30.864 34.624 31.416 35.744 32.52C36.88 33.608 37.448 35.088 37.448 36.96V37.056H34.328V36.864C34.328 36.272 34.2 35.736 33.944 35.256C33.704 34.776 33.336 34.4 32.84 34.128C32.344 33.84 31.72 33.696 30.968 33.696C29.848 33.696 28.968 34.04 28.328 34.728C27.688 35.416 27.368 36.352 27.368 37.536V41.664C27.368 42.832 27.688 43.776 28.328 44.496C28.968 45.2 29.864 45.552 31.016 45.552C32.168 45.552 33.008 45.248 33.536 44.64C34.064 44.032 34.328 43.264 34.328 42.336V42.096H30.344V39.408H37.448V48H34.52V46.392H34.088C33.976 46.664 33.792 46.952 33.536 47.256C33.296 47.56 32.928 47.816 32.432 48.024C31.936 48.232 31.256 48.336 30.392 48.336ZM39.3226 48L43.7386 31.2H49.2586L53.6746 48H50.4106L49.4986 44.304H43.4986L42.5866 48H39.3226ZM44.2426 41.376H48.7546L46.7146 33.192H46.2826L44.2426 41.376ZM55.6856 48V31.2H61.5656L64.4696 45.84H64.9016L67.8056 31.2H73.6856V48H70.6136V33.528H70.1816L67.3016 48H62.0696L59.1896 33.528H58.7576V48H55.6856ZM76.8496 48V31.2H87.6496V34.08H80.0176V38.088H86.9776V40.968H80.0176V45.12H87.7936V48H76.8496ZM96.2324 48V31.2H103.528C104.584 31.2 105.504 31.384 106.288 31.752C107.072 32.12 107.68 32.64 108.112 33.312C108.544 33.984 108.76 34.776 108.76 35.688V35.976C108.76 36.984 108.52 37.8 108.04 38.424C107.56 39.048 106.968 39.504 106.264 39.792V40.224C106.904 40.256 107.4 40.48 107.752 40.896C108.104 41.296 108.28 41.832 108.28 42.504V48H105.112V42.96C105.112 42.576 105.008 42.264 104.8 42.024C104.608 41.784 104.28 41.664 103.816 41.664H99.4004V48H96.2324ZM99.4004 38.784H103.192C103.944 38.784 104.528 38.584 104.944 38.184C105.376 37.768 105.592 37.224 105.592 36.552V36.312C105.592 35.64 105.384 35.104 104.968 34.704C104.552 34.288 103.96 34.08 103.192 34.08H99.4004V38.784ZM117.877 48.336C116.501 48.336 115.317 48.088 114.325 47.592C113.349 47.08 112.597 46.36 112.069 45.432C111.557 44.488 111.301 43.376 111.301 42.096V31.2H114.469V42.192C114.469 43.216 114.757 44.024 115.333 44.616C115.925 45.208 116.773 45.504 117.877 45.504C118.981 45.504 119.821 45.208 120.397 44.616C120.989 44.024 121.285 43.216 121.285 42.192V31.2H124.453V42.096C124.453 43.376 124.189 44.488 123.661 45.432C123.149 46.36 122.397 47.08 121.405 47.592C120.429 48.088 119.253 48.336 117.877 48.336ZM127.521 48V31.2H130.69V45.12H138.37V48H127.521ZM140.529 48V31.2H151.329V34.08H143.697V38.088H150.657V40.968H143.697V45.12H151.473V48H140.529ZM159.65 48.336C158.354 48.336 157.21 48.104 156.218 47.64C155.226 47.176 154.45 46.512 153.89 45.648C153.33 44.784 153.05 43.744 153.05 42.528V41.856H156.17V42.528C156.17 43.536 156.482 44.296 157.106 44.808C157.73 45.304 158.578 45.552 159.65 45.552C160.738 45.552 161.546 45.336 162.074 44.904C162.618 44.472 162.89 43.92 162.89 43.248C162.89 42.784 162.754 42.408 162.482 42.12C162.226 41.832 161.842 41.6 161.33 41.424C160.834 41.232 160.226 41.056 159.506 40.896L158.954 40.776C157.802 40.52 156.81 40.2 155.978 39.816C155.162 39.416 154.53 38.896 154.082 38.256C153.65 37.616 153.434 36.784 153.434 35.76C153.434 34.736 153.674 33.864 154.154 33.144C154.65 32.408 155.338 31.848 156.218 31.464C157.114 31.064 158.162 30.864 159.362 30.864C160.562 30.864 161.626 31.072 162.554 31.488C163.498 31.888 164.234 32.496 164.762 33.312C165.306 34.112 165.578 35.12 165.578 36.336V37.056H162.458V36.336C162.458 35.696 162.33 35.184 162.074 34.8C161.834 34.4 161.482 34.112 161.018 33.936C160.554 33.744 160.002 33.648 159.362 33.648C158.402 33.648 157.69 33.832 157.226 34.2C156.778 34.552 156.554 35.04 156.554 35.664C156.554 36.08 156.658 36.432 156.866 36.72C157.09 37.008 157.418 37.248 157.85 37.44C158.282 37.632 158.834 37.8 159.506 37.944L160.058 38.064C161.258 38.32 162.298 38.648 163.178 39.048C164.074 39.448 164.77 39.976 165.266 40.632C165.762 41.288 166.01 42.128 166.01 43.152C166.01 44.176 165.746 45.08 165.218 45.864C164.706 46.632 163.97 47.24 163.01 47.688C162.066 48.12 160.946 48.336 159.65 48.336Z" fill="black"/>
<defs>
<filter id="filter0_d_5_5895" x="0" y="0" width="406" height="88" filterUnits="userSpaceOnUse" color-interpolation-filters="sRGB">
<feFlood flood-opacity="0" result="BackgroundImageFix"/>
<feColorMatrix in="SourceAlpha" type="matrix" values="0 0 0 0 0 0 0 0 0 0 0 0 0 0 0 0 0 0 127 0" result="hardAlpha"/>
<feOffset dy="10"/>
<feColorMatrix type="matrix" values="0 0 0 0 0 0 0 0 0 0 0 0 0 0 0 0 0 0 1 0"/>
<feBlend mode="normal" in2="BackgroundImageFix" result="effect1_dropShadow_5_5895"/>
<feBlend mode="normal" in="SourceGraphic" in2="effect1_dropShadow_5_5895" result="shape"/>
</filter>
</defs>
</svg>
